<?xml version="1.0" encoding="us-ascii" standalone="no"?><svg xmlns="http://www.w3.org/2000/svg" xmlns:xlink="http://www.w3.org/1999/xlink" contentStyleType="text/css" height="1084.375px" preserveAspectRatio="none" style="width:876px;height:1084px;" version="1.1" viewBox="0 0 876 1084" width="876.0417px" zoomAndPan="magnify"><defs><linearGradient id="gp2gbu94jl4090" x1="50%" x2="50%" y1="0%" y2="100%"><stop offset="0%" stop-color="#4DABF5"/><stop offset="100%" stop-color="#2196F3"/></linearGradient><linearGradient id="gp2gbu94jl4091" x1="50%" x2="50%" y1="0%" y2="100%"><stop offset="0%" stop-color="#2196F3"/><stop offset="100%" stop-color="#1A78C2"/></linearGradient><linearGradient id="gp2gbu94jl4092" x1="50%" x2="50%" y1="0%" y2="100%"><stop offset="0%" stop-color="#FFFFFF"/><stop offset="100%" stop-color="#FFFFFF"/></linearGradient></defs><g><!--class ApiProtocol--><g id="elem_ApiProtocol"><rect codeLine="9" fill="url(#gp2gbu94jl4090)" height="301.6683" id="ApiProtocol" rx="4.1667" ry="4.1667" style="stroke:#2196F3;stroke-width:1.0416666666666667;" width="261.4583" x="19.7917" y="17.7083"/><rect fill="url(#gp2gbu94jl4091)" height="79.9723" rx="4.1667" ry="4.1667" style="stroke:url(#gp2gbu94jl4091);stroke-width:1.0416666666666667;" width="261.4583" x="19.7917" y="17.7083"/><rect fill="url(#gp2gbu94jl4091)" height="4.1667" style="stroke:url(#gp2gbu94jl4091);stroke-width:1.0416666666666667;" width="261.4583" x="19.7917" y="93.514"/><rect codeLine="9" fill="none" height="301.6683" id="ApiProtocol" rx="4.1667" ry="4.1667" style="stroke:#2196F3;stroke-width:1.0416666666666667;" width="261.4583" x="19.7917" y="17.7083"/><ellipse cx="103.6458" cy="57.6945" fill="#DAA520" rx="10.4167" ry="10.4167" style="stroke:#1A78C2;stroke-width:1.0416666666666667;"/><path d="M103.4668,58.8338 L104.6875,58.8338 C105.8594,58.8338 106.4779,58.6222 107.0313,58.02 C107.4219,57.5806 107.6497,56.9946 107.6497,56.4087 C107.6497,55.0252 106.5267,54.0487 104.9479,54.0487 L102.0345,54.0487 C101.709,54.0487 101.6113,54.0649 101.4974,54.1463 C101.3184,54.2603 101.2044,54.4718 101.2044,54.6834 C101.2044,54.8625 101.3021,55.0578 101.4648,55.188 C101.5788,55.2856 101.709,55.3019 102.0345,55.3019 L102.2135,55.3019 L102.2135,60.0871 L102.0345,60.0871 C101.7253,60.0871 101.6113,60.1034 101.4974,60.1847 C101.3184,60.2824 101.2044,60.5103 101.2044,60.7218 C101.2044,60.9009 101.3021,61.0962 101.4648,61.2101 C101.5625,61.3078 101.7415,61.3403 102.0345,61.3403 L104.7038,61.3403 C104.9479,61.3403 105.1432,61.3078 105.2246,61.259 C105.4199,61.145 105.5339,60.9334 105.5339,60.7218 C105.5339,60.5103 105.4362,60.3312 105.2734,60.201 C105.1432,60.1196 105.0456,60.0871 104.7038,60.0871 L103.4668,60.0871 L103.4668,58.8338 Z M103.4668,55.3019 L104.9479,55.3019 C105.8105,55.3019 106.3314,55.7414 106.3314,56.4575 C106.3314,57.1574 105.8105,57.5968 104.9479,57.5968 L103.4668,57.5968 L103.4668,55.3019 Z " fill="#FFFFFF"/><text fill="#222222" font-family="Verdana" font-size="12.5" font-style="italic" lengthAdjust="spacing" textLength="65.625" x="133.3333" y="44.9361">&#171;protocol&#187;</text><text fill="#FFFFFF" font-family="Verdana" font-size="11.4583" lengthAdjust="spacing" textLength="64.5833" x="133.8542" y="79.3533">ApiProtocol</text><line style="stroke:#2196F3;stroke-width:1.0416666666666667;" x1="20.8333" x2="280.2083" y1="97.6807" y2="97.6807"/><polygon fill="none" points="31.25,116.3289,27.0833,122.5789,35.4167,122.5789" style="stroke:#2196F3;stroke-width:1.0416666666666667;"/><text fill="#FFFFFF" font-family="Verdana" font-size="11.4583" lengthAdjust="spacing" textLength="67.7083" x="50" y="122.8999">key : String</text><polygon fill="none" points="31.25,150.5005,27.0833,156.7505,35.4167,156.7505" style="stroke:#2196F3;stroke-width:1.0416666666666667;"/><text fill="#FFFFFF" font-family="Verdana" font-size="11.4583" lengthAdjust="spacing" textLength="79.1667" x="50" y="157.0714">apiUrl : String</text><polygon fill="none" points="31.25,184.672,27.0833,190.922,35.4167,190.922" style="stroke:#2196F3;stroke-width:1.0416666666666667;"/><text fill="#FFFFFF" font-family="Verdana" font-size="11.4583" lengthAdjust="spacing" textLength="89.5833" x="50" y="191.243">version : String</text><polygon fill="none" points="31.25,218.8436,27.0833,225.0936,35.4167,225.0936" style="stroke:#2196F3;stroke-width:1.0416666666666667;"/><text fill="#FFFFFF" font-family="Verdana" font-size="11.4583" lengthAdjust="spacing" textLength="187.5" x="50" y="225.4145">urlSession : URLSessionProtocol</text><polygon fill="none" points="31.25,253.0151,27.0833,259.2651,35.4167,259.2651" style="stroke:#2196F3;stroke-width:1.0416666666666667;"/><text fill="#FFFFFF" font-family="Verdana" font-size="11.4583" lengthAdjust="spacing" textLength="214.5833" x="50" y="259.5861">defaultParameters : [URLQueryItem]</text><line style="stroke:#2196F3;stroke-width:1.0416666666666667;" x1="20.8333" x2="280.2083" y1="276.8717" y2="276.8717"/><polygon fill="url(#gp2gbu94jl4092)" points="31.25,295.52,27.0833,301.77,35.4167,301.77" style="stroke:#2196F3;stroke-width:1.0416666666666667;"/><text fill="#FFFFFF" font-family="Verdana" font-size="11.4583" lengthAdjust="spacing" textLength="79.1667" x="50" y="302.091">getEndpoint()</text></g><!--class URLSessionProtocol--><g id="elem_URLSessionProtocol"><rect codeLine="17" fill="url(#gp2gbu94jl4090)" height="164.9821" id="URLSessionProtocol" rx="4.1667" ry="4.1667" style="stroke:#2196F3;stroke-width:1.0416666666666667;" width="250" x="318.2292" y="86.4583"/><rect fill="url(#gp2gbu94jl4091)" height="79.9723" rx="4.1667" ry="4.1667" style="stroke:url(#gp2gbu94jl4091);stroke-width:1.0416666666666667;" width="250" x="318.2292" y="86.4583"/><rect fill="url(#gp2gbu94jl4091)" height="4.1667" style="stroke:url(#gp2gbu94jl4091);stroke-width:1.0416666666666667;" width="250" x="318.2292" y="162.264"/><rect codeLine="17" fill="none" height="164.9821" id="URLSessionProtocol" rx="4.1667" ry="4.1667" style="stroke:#2196F3;stroke-width:1.0416666666666667;" width="250" x="318.2292" y="86.4583"/><ellipse cx="371.3542" cy="126.4445" fill="#DAA520" rx="10.4167" ry="10.4167" style="stroke:#1A78C2;stroke-width:1.0416666666666667;"/><path d="M371.1751,127.5838 L372.3958,127.5838 C373.5677,127.5838 374.1862,127.3722 374.7396,126.77 C375.1302,126.3306 375.3581,125.7446 375.3581,125.1587 C375.3581,123.7752 374.235,122.7987 372.6563,122.7987 L369.7428,122.7987 C369.4173,122.7987 369.3197,122.8149 369.2057,122.8963 C369.0267,123.0103 368.9128,123.2218 368.9128,123.4334 C368.9128,123.6125 369.0104,123.8078 369.1732,123.938 C369.2871,124.0356 369.4173,124.0519 369.7428,124.0519 L369.9219,124.0519 L369.9219,128.8371 L369.7428,128.8371 C369.4336,128.8371 369.3197,128.8534 369.2057,128.9347 C369.0267,129.0324 368.9128,129.2603 368.9128,129.4718 C368.9128,129.6509 369.0104,129.8462 369.1732,129.9601 C369.2708,130.0578 369.4499,130.0903 369.7428,130.0903 L372.4121,130.0903 C372.6563,130.0903 372.8516,130.0578 372.9329,130.009 C373.1283,129.895 373.2422,129.6834 373.2422,129.4718 C373.2422,129.2603 373.1445,129.0812 372.9818,128.951 C372.8516,128.8696 372.7539,128.8371 372.4121,128.8371 L371.1751,128.8371 L371.1751,127.5838 Z M371.1751,124.0519 L372.6563,124.0519 C373.5189,124.0519 374.0397,124.4914 374.0397,125.2075 C374.0397,125.9074 373.5189,126.3468 372.6563,126.3468 L371.1751,126.3468 L371.1751,124.0519 Z " fill="#FFFFFF"/><text fill="#222222" font-family="Verdana" font-size="12.5" font-style="italic" lengthAdjust="spacing" textLength="65.625" x="426.0417" y="113.6861">&#171;protocol&#187;</text><text fill="#FFFFFF" font-family="Verdana" font-size="11.4583" lengthAdjust="spacing" textLength="114.5833" x="401.5625" y="148.1033">URLSessionProtocol</text><line style="stroke:#2196F3;stroke-width:1.0416666666666667;" x1="319.2708" x2="567.1875" y1="166.4307" y2="166.4307"/><line style="stroke:#2196F3;stroke-width:1.0416666666666667;" x1="319.2708" x2="567.1875" y1="174.764" y2="174.764"/><ellipse cx="329.6875" cy="197.5789" fill="none" rx="3.125" ry="3.125" style="stroke:#1A78C2;stroke-width:1.0416666666666667;"/><text fill="#FFFFFF" font-family="Verdana" font-size="11.4583" lengthAdjust="spacing" textLength="203.125" x="348.4375" y="199.9832">dataTask(with:completionHandler:)</text><ellipse cx="329.6875" cy="231.7505" fill="none" rx="3.125" ry="3.125" style="stroke:#1A78C2;stroke-width:1.0416666666666667;"/><text fill="#FFFFFF" font-family="Verdana" font-size="11.4583" lengthAdjust="spacing" textLength="203.125" x="348.4375" y="234.1548">dataTask(with:completionHandler:)</text></g><!--class APIManager--><g id="elem_APIManager"><rect codeLine="21" fill="url(#gp2gbu94jl4090)" height="423.8037" id="APIManager" rx="4.1667" ry="4.1667" style="stroke:#2196F3;stroke-width:1.0416666666666667;" width="261.4583" x="19.7917" y="418.75"/><rect fill="url(#gp2gbu94jl4091)" height="65.4215" rx="4.1667" ry="4.1667" style="stroke:url(#gp2gbu94jl4091);stroke-width:1.0416666666666667;" width="261.4583" x="19.7917" y="418.75"/><rect fill="url(#gp2gbu94jl4091)" height="4.1667" style="stroke:url(#gp2gbu94jl4091);stroke-width:1.0416666666666667;" width="261.4583" x="19.7917" y="480.0049"/><rect codeLine="21" fill="none" height="423.8037" id="APIManager" rx="4.1667" ry="4.1667" style="stroke:#2196F3;stroke-width:1.0416666666666667;" width="261.4583" x="19.7917" y="418.75"/><ellipse cx="101.5625" cy="451.4608" fill="#8FBC8F" rx="10.4167" ry="10.4167" style="stroke:#1A78C2;stroke-width:1.0416666666666667;"/><path d="M103.4993,448.0754 C102.8158,447.7498 102.3763,447.6522 101.7253,447.6522 C99.8047,447.6522 98.3236,449.1659 98.3236,451.1678 L98.3236,451.9979 C98.3236,453.9022 99.8861,455.2856 102.002,455.2856 C102.8971,455.2856 103.7598,455.0578 104.2969,454.6509 C104.7363,454.3579 104.9642,454.0324 104.9642,453.7394 C104.9642,453.4139 104.6712,453.1209 104.3457,453.1209 C104.1829,453.1209 104.0365,453.186 103.89,453.3162 C103.5482,453.6743 103.5482,453.6743 103.418,453.7394 C103.1087,453.9347 102.6042,454.0324 102.0345,454.0324 C100.5371,454.0324 99.5768,453.2186 99.5768,451.9653 L99.5768,451.1678 C99.5768,449.8494 100.5046,448.8892 101.7741,448.8892 C102.1973,448.8892 102.653,449.0031 102.9948,449.1984 C103.3529,449.3937 103.4831,449.5565 103.5482,449.8494 C103.597,450.1587 103.6133,450.2401 103.7109,450.3377 C103.8086,450.4517 103.9876,450.5168 104.1504,450.5168 C104.362,450.5168 104.541,450.4191 104.6712,450.2563 C104.7526,450.1424 104.7852,450.0122 104.7852,449.6867 L104.7852,448.645 C104.7852,448.3358 104.7689,448.2381 104.6875,448.1242 C104.5736,447.9289 104.3783,447.8149 104.1504,447.8149 C103.9388,447.8149 103.7923,447.8963 103.6296,448.1242 L103.4993,448.0754 Z " fill="#FFFFFF"/><text fill="#FFFFFF" font-family="Verdana" font-size="11.4583" lengthAdjust="spacing" textLength="68.75" x="131.7708" y="465.8442">APIManager</text><line style="stroke:#2196F3;stroke-width:1.0416666666666667;" x1="20.8333" x2="280.2083" y1="484.1715" y2="484.1715"/><polygon fill="none" points="31.25,502.8198,27.0833,509.0698,35.4167,509.0698" style="stroke:#2196F3;stroke-width:1.0416666666666667;"/><text fill="#FFFFFF" font-family="Verdana" font-size="11.4583" lengthAdjust="spacing" textLength="67.7083" x="50" y="509.3908">key : String</text><polygon fill="none" points="31.25,536.9914,27.0833,543.2414,35.4167,543.2414" style="stroke:#2196F3;stroke-width:1.0416666666666667;"/><text fill="#FFFFFF" font-family="Verdana" font-size="11.4583" lengthAdjust="spacing" textLength="79.1667" x="50" y="543.5623">apiUrl : String</text><polygon fill="none" points="31.25,571.1629,27.0833,577.4129,35.4167,577.4129" style="stroke:#2196F3;stroke-width:1.0416666666666667;"/><text fill="#FFFFFF" font-family="Verdana" font-size="11.4583" lengthAdjust="spacing" textLength="89.5833" x="50" y="577.7339">version : String</text><polygon fill="none" points="31.25,605.3345,27.0833,611.5845,35.4167,611.5845" style="stroke:#2196F3;stroke-width:1.0416666666666667;"/><text fill="#FFFFFF" font-family="Verdana" font-size="11.4583" lengthAdjust="spacing" textLength="187.5" x="50" y="611.9054">urlSession : URLSessionProtocol</text><polygon fill="none" points="31.25,639.506,27.0833,645.756,35.4167,645.756" style="stroke:#2196F3;stroke-width:1.0416666666666667;"/><text fill="#FFFFFF" font-family="Verdana" font-size="11.4583" lengthAdjust="spacing" textLength="214.5833" x="50" y="646.077">defaultParameters : [URLQueryItem]</text><line style="stroke:#2196F3;stroke-width:1.0416666666666667;" x1="20.8333" x2="280.2083" y1="663.3626" y2="663.3626"/><ellipse cx="31.25" cy="686.1776" fill="none" rx="3.125" ry="3.125" style="stroke:#1A78C2;stroke-width:1.0416666666666667;"/><text fill="#FFFFFF" font-family="Verdana" font-size="11.4583" lengthAdjust="spacing" textLength="198.9583" x="50" y="688.5818">init(key:apiUrl:version:urlSession:)</text><ellipse cx="31.25" cy="720.3491" fill="none" rx="3.125" ry="3.125" style="stroke:#1A78C2;stroke-width:1.0416666666666667;"/><text fill="#FFFFFF" font-family="Verdana" font-size="11.4583" lengthAdjust="spacing" textLength="134.375" x="50" y="722.7534">init(key:apiUrl:version:)</text><polygon fill="url(#gp2gbu94jl4092)" points="31.25,750.354,27.0833,756.604,35.4167,756.604" style="stroke:#2196F3;stroke-width:1.0416666666666667;"/><text fill="#FFFFFF" font-family="Verdana" font-size="11.4583" lengthAdjust="spacing" textLength="79.1667" x="50" y="756.9249">getEndpoint()</text><polygon fill="url(#gp2gbu94jl4092)" points="31.25,784.5256,27.0833,790.7756,35.4167,790.7756" style="stroke:#2196F3;stroke-width:1.0416666666666667;"/><text fill="#FFFFFF" font-family="Verdana" font-size="11.4583" lengthAdjust="spacing" textLength="209.375" x="50" y="791.0965">addDefaultParameter(name:value:)</text><ellipse cx="31.25" cy="822.8638" fill="none" rx="3.125" ry="3.125" style="stroke:#1A78C2;stroke-width:1.0416666666666667;"/><text fill="#FFFFFF" font-family="Verdana" font-size="11.4583" lengthAdjust="spacing" textLength="147.9167" x="50" y="825.268">send(to:with:completion:)</text></g><!--class ApiError--><g id="elem_ApiError"><rect codeLine="33" fill="url(#gp2gbu94jl4090)" height="164.9821" id="ApiError" rx="4.1667" ry="4.1667" style="stroke:#2196F3;stroke-width:1.0416666666666667;" width="122.9167" x="582.8125" y="548.4375"/><rect fill="url(#gp2gbu94jl4091)" height="79.9723" rx="4.1667" ry="4.1667" style="stroke:url(#gp2gbu94jl4091);stroke-width:1.0416666666666667;" width="122.9167" x="582.8125" y="548.4375"/><rect fill="url(#gp2gbu94jl4091)" height="4.1667" style="stroke:url(#gp2gbu94jl4091);stroke-width:1.0416666666666667;" width="122.9167" x="582.8125" y="624.2432"/><rect codeLine="33" fill="none" height="164.9821" id="ApiError" rx="4.1667" ry="4.1667" style="stroke:#2196F3;stroke-width:1.0416666666666667;" width="122.9167" x="582.8125" y="548.4375"/><ellipse cx="608.1771" cy="588.4237" fill="#B0C4DE" rx="10.4167" ry="10.4167" style="stroke:#1A78C2;stroke-width:1.0416666666666667;"/><path d="M607.4772,589.0259 L608.5352,589.0259 L608.5352,589.1235 C608.5352,589.4165 608.5677,589.5304 608.6328,589.6444 C608.7467,589.8397 608.9583,589.9373 609.1699,589.9373 C609.349,589.9373 609.5443,589.8397 609.6582,589.6769 C609.7559,589.563 609.7721,589.4491 609.7721,589.1235 L609.7721,587.7075 C609.7721,587.5936 609.7721,587.561 609.7721,587.4471 C609.707,587.089 609.4954,586.8774 609.1536,586.8774 C608.9583,586.8774 608.7793,586.9751 608.6491,587.1379 C608.5677,587.2518 608.5352,587.3657 608.5352,587.7075 L608.5352,587.7889 L607.4772,587.7889 L607.4772,586.0311 L610.4069,586.0311 L610.4069,586.6496 C610.4069,586.9588 610.4232,587.089 610.4883,587.1867 C610.6185,587.382 610.8138,587.4959 611.0254,587.4959 C611.2207,587.4959 611.416,587.3983 611.5462,587.2355 C611.6276,587.1053 611.6602,587.0076 611.6602,586.6496 L611.6602,584.7778 L606.0449,584.7778 C605.7194,584.7778 605.6217,584.7941 605.5078,584.8755 C605.3288,584.9894 605.2148,585.201 605.2148,585.4126 C605.2148,585.6079 605.3125,585.7869 605.4753,585.9172 C605.5892,586.0148 605.7194,586.0311 606.0449,586.0311 L606.224,586.0311 L606.224,590.8162 L606.0449,590.8162 C605.7357,590.8162 605.6217,590.8325 605.5078,590.9139 C605.3288,591.0278 605.2148,591.2394 605.2148,591.451 C605.2148,591.6463 605.3125,591.8254 605.4753,591.9393 C605.5729,592.0369 605.752,592.0695 606.0449,592.0695 L611.9206,592.0695 L611.9206,590.1652 C611.9206,589.856 611.9043,589.742 611.8392,589.6281 C611.709,589.4491 611.5137,589.3351 611.3021,589.3351 C611.1068,589.3351 610.9115,589.4165 610.7975,589.5955 C610.6999,589.7257 610.6836,589.8234 610.6836,590.1652 L610.6836,590.8162 L607.4772,590.8162 L607.4772,589.0259 Z " fill="#FFFFFF"/><text fill="#222222" font-family="Verdana" font-size="12.5" font-style="italic" lengthAdjust="spacing" textLength="51.0417" x="632.4479" y="575.6653">&#171;enum&#187;</text><text fill="#FFFFFF" font-family="Verdana" font-size="11.4583" lengthAdjust="spacing" textLength="45.8333" x="635.0521" y="610.0825">ApiError</text><line style="stroke:#2196F3;stroke-width:1.0416666666666667;" x1="583.8542" x2="704.6875" y1="628.4098" y2="628.4098"/><polygon fill="none" points="594.2708,647.0581,590.1042,653.3081,598.4375,653.3081" style="stroke:#2196F3;stroke-width:1.0416666666666667;"/><text fill="#FFFFFF" font-family="Verdana" font-size="11.4583" lengthAdjust="spacing" textLength="66.6667" x="613.0208" y="653.629">invalidData</text><polygon fill="none" points="594.2708,681.2297,590.1042,687.4797,598.4375,687.4797" style="stroke:#2196F3;stroke-width:1.0416666666666667;"/><text fill="#FFFFFF" font-family="Verdana" font-size="11.4583" lengthAdjust="spacing" textLength="76.0417" x="613.0208" y="687.8006">cityNotFound</text><line style="stroke:#2196F3;stroke-width:1.0416666666666667;" x1="583.8542" x2="704.6875" y1="705.0863" y2="705.0863"/></g><!--class ApiResult--><g id="elem_ApiResult"><rect codeLine="37" fill="url(#gp2gbu94jl4090)" height="164.9821" id="ApiResult" rx="4.1667" ry="4.1667" style="stroke:#2196F3;stroke-width:1.0416666666666667;" width="139.5833" x="720.3125" y="86.4583"/><rect fill="url(#gp2gbu94jl4091)" height="79.9723" rx="4.1667" ry="4.1667" style="stroke:url(#gp2gbu94jl4091);stroke-width:1.0416666666666667;" width="139.5833" x="720.3125" y="86.4583"/><rect fill="url(#gp2gbu94jl4091)" height="4.1667" style="stroke:url(#gp2gbu94jl4091);stroke-width:1.0416666666666667;" width="139.5833" x="720.3125" y="162.264"/><rect codeLine="37" fill="none" height="164.9821" id="ApiResult" rx="4.1667" ry="4.1667" style="stroke:#2196F3;stroke-width:1.0416666666666667;" width="139.5833" x="720.3125" y="86.4583"/><ellipse cx="734.8958" cy="126.4445" fill="#B0C4DE" rx="10.4167" ry="10.4167" style="stroke:#1A78C2;stroke-width:1.0416666666666667;"/><path d="M734.196,127.0467 L735.2539,127.0467 L735.2539,127.1444 C735.2539,127.4373 735.2865,127.5513 735.3516,127.6652 C735.4655,127.8605 735.6771,127.9582 735.8887,127.9582 C736.0677,127.9582 736.263,127.8605 736.377,127.6978 C736.4746,127.5838 736.4909,127.4699 736.4909,127.1444 L736.4909,125.7284 C736.4909,125.6144 736.4909,125.5819 736.4909,125.4679 C736.4258,125.1099 736.2142,124.8983 735.8724,124.8983 C735.6771,124.8983 735.498,124.9959 735.3678,125.1587 C735.2865,125.2726 735.2539,125.3866 735.2539,125.7284 L735.2539,125.8097 L734.196,125.8097 L734.196,124.0519 L737.1257,124.0519 L737.1257,124.6704 C737.1257,124.9797 737.1419,125.1099 737.207,125.2075 C737.3372,125.4028 737.5326,125.5168 737.7441,125.5168 C737.9395,125.5168 738.1348,125.4191 738.265,125.2563 C738.3464,125.1261 738.3789,125.0285 738.3789,124.6704 L738.3789,122.7987 L732.7637,122.7987 C732.4382,122.7987 732.3405,122.8149 732.2266,122.8963 C732.0475,123.0103 731.9336,123.2218 731.9336,123.4334 C731.9336,123.6287 732.0313,123.8078 732.194,123.938 C732.3079,124.0356 732.4382,124.0519 732.7637,124.0519 L732.9427,124.0519 L732.9427,128.8371 L732.7637,128.8371 C732.4544,128.8371 732.3405,128.8534 732.2266,128.9347 C732.0475,129.0487 731.9336,129.2603 731.9336,129.4718 C731.9336,129.6672 732.0313,129.8462 732.194,129.9601 C732.2917,130.0578 732.4707,130.0903 732.7637,130.0903 L738.6393,130.0903 L738.6393,128.186 C738.6393,127.8768 738.623,127.7629 738.5579,127.6489 C738.4277,127.4699 738.2324,127.356 738.0208,127.356 C737.8255,127.356 737.6302,127.4373 737.5163,127.6164 C737.4186,127.7466 737.4023,127.8442 737.4023,128.186 L737.4023,128.8371 L734.196,128.8371 L734.196,127.0467 Z " fill="#FFFFFF"/><text fill="#222222" font-family="Verdana" font-size="12.5" font-style="italic" lengthAdjust="spacing" textLength="51.0417" x="760.9375" y="113.6861">&#171;enum&#187;</text><text fill="#FFFFFF" font-family="Verdana" font-size="11.4583" lengthAdjust="spacing" textLength="55.2083" x="758.8542" y="148.1033">ApiResult</text><rect fill="none" height="37.4674" style="stroke:#2196F3;stroke-width:1.0416666666666667;stroke-dasharray:2.0,2.0;" width="30.2083" x="832.8125" y="83.3333"/><text fill="#222222" font-family="Verdana" font-size="12.5" font-style="italic" lengthAdjust="spacing" textLength="7.2917" x="844.2708" y="106.3944">T</text><line style="stroke:#2196F3;stroke-width:1.0416666666666667;" x1="721.3542" x2="858.8542" y1="166.4307" y2="166.4307"/><line style="stroke:#2196F3;stroke-width:1.0416666666666667;" x1="721.3542" x2="858.8542" y1="174.764" y2="174.764"/><ellipse cx="731.7708" cy="197.5789" fill="none" rx="3.125" ry="3.125" style="stroke:#1A78C2;stroke-width:1.0416666666666667;"/><text fill="#FFFFFF" font-family="Verdana" font-size="11.4583" lengthAdjust="spacing" textLength="64.5833" x="750.5208" y="199.9832">success(_:)</text><ellipse cx="731.7708" cy="231.7505" fill="none" rx="3.125" ry="3.125" style="stroke:#1A78C2;stroke-width:1.0416666666666667;"/><text fill="#FFFFFF" font-family="Verdana" font-size="11.4583" lengthAdjust="spacing" textLength="45.8333" x="750.5208" y="234.1548">error(_:)</text></g><!--class ApiError0--><g id="elem_ApiError0"><rect codeLine="41" fill="url(#gp2gbu94jl4090)" height="130.8105" id="ApiError0" rx="4.1667" ry="4.1667" style="stroke:#2196F3;stroke-width:1.0416666666666667;" width="157.2917" x="565.625" y="941.6667"/><rect fill="url(#gp2gbu94jl4091)" height="79.9723" rx="4.1667" ry="4.1667" style="stroke:url(#gp2gbu94jl4091);stroke-width:1.0416666666666667;" width="157.2917" x="565.625" y="941.6667"/><rect fill="url(#gp2gbu94jl4091)" height="4.1667" style="stroke:url(#gp2gbu94jl4091);stroke-width:1.0416666666666667;" width="157.2917" x="565.625" y="1017.4723"/><rect codeLine="41" fill="none" height="130.8105" id="ApiError0" rx="4.1667" ry="4.1667" style="stroke:#2196F3;stroke-width:1.0416666666666667;" width="157.2917" x="565.625" y="941.6667"/><ellipse cx="595.6771" cy="981.6528" fill="#DA70D6" rx="10.4167" ry="10.4167" style="stroke:#1A78C2;stroke-width:1.0416666666666667;"/><path d="M596.5885,981.5877 L598.5417,979.2603 C598.9811,979.244 599.2578,979.0161 599.2578,978.6418 C599.2578,978.4302 599.1764,978.2511 598.9974,978.1209 C598.8672,978.0396 598.7695,978.007 598.4277,978.007 L597.3047,978.007 C597.028,978.007 596.8327,978.0558 596.735,978.1372 C596.5723,978.2511 596.4746,978.4465 596.4746,978.6418 C596.4746,978.9185 596.5885,979.0812 596.9466,979.244 L595.7747,980.6112 L594.5866,979.244 C594.9609,979.0812 595.0749,978.9185 595.0749,978.6418 C595.0749,978.4302 594.9609,978.2511 594.7982,978.1209 C594.6842,978.0396 594.5866,978.007 594.2285,978.007 L593.0892,978.007 C593.0078,978.007 592.9915,978.007 592.8451,978.0396 C592.487,978.0721 592.2754,978.3 592.2754,978.6418 C592.2754,979.0161 592.5358,979.244 592.9915,979.2603 L594.9609,981.5715 L592.8939,984.0454 C592.4382,984.0454 592.1615,984.2896 592.1615,984.6802 C592.1615,984.8755 592.2591,985.0545 592.4219,985.1847 C592.5358,985.2661 592.6823,985.2987 592.9753,985.2987 L594.375,985.2987 C594.6354,985.2987 594.7982,985.2661 594.8958,985.2173 C595.0749,985.1034 595.1888,984.8918 595.1888,984.6802 C595.1888,984.3058 594.9447,984.078 594.5215,984.0454 L595.791,982.548 L597.0605,984.0454 C596.6211,984.078 596.3607,984.3058 596.3607,984.6802 C596.3607,985.0871 596.6374,985.2987 597.1908,985.2987 L598.5742,985.2987 C598.8509,985.2987 599.0137,985.2661 599.1113,985.2173 C599.2904,985.1034 599.4043,984.8918 599.4043,984.6802 C599.4043,984.2896 599.1439,984.0617 598.6719,984.0454 L596.5885,981.5877 Z " fill="#FFFFFF"/><text fill="#222222" font-family="Verdana" font-size="12.5" font-style="italic" lengthAdjust="spacing" textLength="75" x="620.9896" y="968.8944">&#171;extension&#187;</text><text fill="#FFFFFF" font-family="Verdana" font-size="11.4583" lengthAdjust="spacing" textLength="45.8333" x="635.5729" y="1003.3117">ApiError</text><line style="stroke:#2196F3;stroke-width:1.0416666666666667;" x1="566.6667" x2="721.875" y1="1021.639" y2="1021.639"/><polygon fill="none" points="577.0833,1040.2873,572.9167,1046.5373,581.25,1046.5373" style="stroke:#2196F3;stroke-width:1.0416666666666667;"/><text fill="#FFFFFF" font-family="Verdana" font-size="11.4583" lengthAdjust="spacing" textLength="110.4167" x="595.8333" y="1046.8582">description : String</text><line style="stroke:#2196F3;stroke-width:1.0416666666666667;" x1="566.6667" x2="721.875" y1="1064.1439" y2="1064.1439"/></g><!--class URLSession--><g id="elem_URLSession"><rect codeLine="44" fill="url(#gp2gbu94jl4090)" height="96.639" id="URLSession" rx="4.1667" ry="4.1667" style="stroke:#2196F3;stroke-width:1.0416666666666667;" width="122.9167" x="381.7708" y="582.2917"/><rect fill="url(#gp2gbu94jl4091)" height="79.9723" rx="4.1667" ry="4.1667" style="stroke:url(#gp2gbu94jl4091);stroke-width:1.0416666666666667;" width="122.9167" x="381.7708" y="582.2917"/><rect fill="url(#gp2gbu94jl4091)" height="4.1667" style="stroke:url(#gp2gbu94jl4091);stroke-width:1.0416666666666667;" width="122.9167" x="381.7708" y="658.0973"/><rect codeLine="44" fill="none" height="96.639" id="URLSession" rx="4.1667" ry="4.1667" style="stroke:#2196F3;stroke-width:1.0416666666666667;" width="122.9167" x="381.7708" y="582.2917"/><ellipse cx="396.3542" cy="622.2778" fill="#DA70D6" rx="10.4167" ry="10.4167" style="stroke:#1A78C2;stroke-width:1.0416666666666667;"/><path d="M397.2656,622.2127 L399.2188,619.8853 C399.6582,619.869 399.9349,619.6411 399.9349,619.2668 C399.9349,619.0552 399.8535,618.8761 399.6745,618.7459 C399.5443,618.6646 399.4466,618.632 399.1048,618.632 L397.9818,618.632 C397.7051,618.632 397.5098,618.6808 397.4121,618.7622 C397.2493,618.8761 397.1517,619.0715 397.1517,619.2668 C397.1517,619.5435 397.2656,619.7062 397.6237,619.869 L396.4518,621.2362 L395.2637,619.869 C395.638,619.7062 395.752,619.5435 395.752,619.2668 C395.752,619.0552 395.638,618.8761 395.4753,618.7459 C395.3613,618.6646 395.2637,618.632 394.9056,618.632 L393.7663,618.632 C393.6849,618.632 393.6686,618.632 393.5221,618.6646 C393.1641,618.6971 392.9525,618.925 392.9525,619.2668 C392.9525,619.6411 393.2129,619.869 393.6686,619.8853 L395.638,622.1965 L393.571,624.6704 C393.1152,624.6704 392.8385,624.9146 392.8385,625.3052 C392.8385,625.5005 392.9362,625.6795 393.099,625.8097 C393.2129,625.8911 393.3594,625.9237 393.6523,625.9237 L395.0521,625.9237 C395.3125,625.9237 395.4753,625.8911 395.5729,625.8423 C395.752,625.7284 395.8659,625.5168 395.8659,625.3052 C395.8659,624.9308 395.6217,624.703 395.1986,624.6704 L396.4681,623.173 L397.7376,624.6704 C397.2982,624.703 397.0378,624.9308 397.0378,625.3052 C397.0378,625.7121 397.3145,625.9237 397.8678,625.9237 L399.2513,625.9237 C399.528,625.9237 399.6908,625.8911 399.7884,625.8423 C399.9674,625.7284 400.0814,625.5168 400.0814,625.3052 C400.0814,624.9146 399.821,624.6867 399.349,624.6704 L397.2656,622.2127 Z " fill="#FFFFFF"/><text fill="#222222" font-family="Verdana" font-size="12.5" font-style="italic" lengthAdjust="spacing" textLength="75" x="418.2292" y="609.5194">&#171;extension&#187;</text><text fill="#FFFFFF" font-family="Verdana" font-size="11.4583" lengthAdjust="spacing" textLength="68.75" x="421.3542" y="643.9367">URLSession</text><line style="stroke:#2196F3;stroke-width:1.0416666666666667;" x1="382.8125" x2="503.6458" y1="662.264" y2="662.264"/><line style="stroke:#2196F3;stroke-width:1.0416666666666667;" x1="382.8125" x2="503.6458" y1="670.5973" y2="670.5973"/></g><!--class Error--><g id="elem_Error"><rect fill="url(#gp2gbu94jl4090)" height="61.2549" id="Error" rx="4.1667" ry="4.1667" style="stroke:#2196F3;stroke-width:1.0416666666666667;" width="79.1667" x="604.6875" y="138.0208"/><rect fill="url(#gp2gbu94jl4091)" height="44.5882" rx="4.1667" ry="4.1667" style="stroke:url(#gp2gbu94jl4091);stroke-width:1.0416666666666667;" width="79.1667" x="604.6875" y="138.0208"/><rect fill="url(#gp2gbu94jl4091)" height="4.1667" style="stroke:url(#gp2gbu94jl4091);stroke-width:1.0416666666666667;" width="79.1667" x="604.6875" y="178.4424"/><rect fill="none" height="61.2549" id="Error" rx="4.1667" ry="4.1667" style="stroke:#2196F3;stroke-width:1.0416666666666667;" width="79.1667" x="604.6875" y="138.0208"/><ellipse cx="619.2708" cy="160.3149" fill="none" rx="10.4167" ry="10.4167" style="stroke:#1A78C2;stroke-width:1.0416666666666667;"/><path d="M621.2077,156.9295 C620.5241,156.604 620.0846,156.5063 619.4336,156.5063 C617.513,156.5063 616.0319,158.02 616.0319,160.022 L616.0319,160.8521 C616.0319,162.7563 617.5944,164.1398 619.7103,164.1398 C620.6055,164.1398 621.4681,163.9119 622.0052,163.505 C622.4447,163.2121 622.6725,162.8866 622.6725,162.5936 C622.6725,162.2681 622.3796,161.9751 622.054,161.9751 C621.8913,161.9751 621.7448,162.0402 621.5983,162.1704 C621.2565,162.5285 621.2565,162.5285 621.1263,162.5936 C620.8171,162.7889 620.3125,162.8866 619.7428,162.8866 C618.2454,162.8866 617.2852,162.0728 617.2852,160.8195 L617.2852,160.022 C617.2852,158.7036 618.2129,157.7433 619.4824,157.7433 C619.9056,157.7433 620.3613,157.8573 620.7031,158.0526 C621.0612,158.2479 621.1914,158.4106 621.2565,158.7036 C621.3053,159.0129 621.3216,159.0942 621.4193,159.1919 C621.5169,159.3058 621.696,159.3709 621.8587,159.3709 C622.0703,159.3709 622.2493,159.2733 622.3796,159.1105 C622.4609,158.9966 622.4935,158.8664 622.4935,158.5409 L622.4935,157.4992 C622.4935,157.1899 622.4772,157.0923 622.3958,156.9784 C622.2819,156.783 622.0866,156.6691 621.8587,156.6691 C621.6471,156.6691 621.5007,156.7505 621.3379,156.9784 L621.2077,156.9295 Z " fill="#FFFFFF"/><text fill="#FFFFFF" font-family="Verdana" font-size="11.4583" lengthAdjust="spacing" textLength="27.0833" x="643.2292" y="164.2817">Error</text><line style="stroke:#2196F3;stroke-width:1.0416666666666667;" x1="605.7292" x2="682.8125" y1="182.609" y2="182.609"/><line style="stroke:#2196F3;stroke-width:1.0416666666666667;" x1="605.7292" x2="682.8125" y1="190.9424" y2="190.9424"/></g><!--reverse link ApiProtocol to APIManager--><g id="link_ApiProtocol_APIManager"><path codeLine="46" d="M150.5208,340.9927 C150.5208,366.2302 150.5208,392.4802 150.5208,418.4104 " fill="none" id="ApiProtocol-backto-APIManager" style="stroke:#2196F3;stroke-width:3.125;stroke-dasharray:7.0,7.0;"/><polygon fill="none" points="143.2292,340.8938,150.5208,320.0604,157.8125,340.8938,143.2292,340.8938" style="stroke:#2196F3;stroke-width:3.125;"/><text fill="#222222" font-family="Verdana" font-size="12.5" lengthAdjust="spacing" textLength="76.0417" x="161.9792" y="374.1028">conforms to</text></g><!--link Error to ApiError--><g id="link_Error_ApiError"><path codeLine="47" d="M644.2708,199.6125 C644.2708,269.1781 644.2708,444.1708 644.2708,548.2427 " fill="none" id="Error-ApiError" style="stroke:#2196F3;stroke-width:3.125;"/><text fill="#222222" font-family="Verdana" font-size="12.5" lengthAdjust="spacing" textLength="45.8333" x="655.7292" y="374.1028">inherits</text></g><!--reverse link URLSessionProtocol to URLSession--><g id="link_URLSessionProtocol_URLSession"><path codeLine="48" d="M443.2292,272.3375 C443.2292,368.9531 443.2292,509.4125 443.2292,582.1125 " fill="none" id="URLSessionProtocol-backto-URLSession" style="stroke:#2196F3;stroke-width:3.125;stroke-dasharray:7.0,7.0;"/><polygon fill="none" points="435.9375,272.051,443.2292,251.2177,450.5208,272.051,435.9375,272.051" style="stroke:#2196F3;stroke-width:3.125;"/><text fill="#222222" font-family="Verdana" font-size="12.5" lengthAdjust="spacing" textLength="76.0417" x="454.6875" y="374.1028">conforms to</text></g><!--reverse link ApiError to ApiError0--><g id="link_ApiError_ApiError0"><path codeLine="49" d="M644.2708,718.3 C644.2708,786.4313 644.2708,879.8906 644.2708,941.6198 " fill="none" id="ApiError-backto-ApiError0" style="stroke:#2196F3;stroke-width:3.125;stroke-dasharray:7.0,7.0;"/><polygon fill="#2196F3" points="644.2708,713.0271,640.1042,722.4021,644.2708,718.2354,648.4375,722.4021,644.2708,713.0271" style="stroke:#2196F3;stroke-width:3.125;"/><text fill="#222222" font-family="Verdana" font-size="12.5" lengthAdjust="spacing" textLength="19.7917" x="655.7292" y="897.0194">ext</text></g><!--SRC=[pLHTRzCm57tthxZiXKJj9fwjQbAXPKmgepIT1488MV5jOzMn8_jceuBnsx6JVgKTMXzvYNHkRiwvvrmxhwZ04g4KX4u9zXgo-TV9E3o7ipbZVgLC9PmemHT2saTbbh0GskEkSNmtOXu9Z2ZHLoB73EC7P1qOQv0nbclXFLmCApLrbcnkzGK83mSO1WD8fdsuiLgYcLcPGhLzTNqDlu01_5dX6ZXavC8C4OjAtJlTAJsWyygQJgrsEaE_AT_F9XkmbOuj4XUYrZIDFZ74u4Fdjz3wkKQtlYKilyUk9TBOoCegGqaAx6dhwvIpiNTQFiTbJmeIS-5NoQEYWkUsh3HI8FaWZDJeU7fMqy5um-djHs744bsR-WusuxphmqYuLORYnY6QzB-9kwUCeYGCmLjXlX7ZUu4sYt_rfISxQrn8EJgIJ-B9vGz2rzWoUZGo8SkFmkscMgcnSzPjJt83caJ7VPYePK4P8UgtWJG5D7Mv3rQPeANaAEmmmbpH-ixIUriRsHMOeGzpRXLQD9XVdwNIytMUXvYI7wqdZFD5y9A7DmtzbpvySdcXmX75duIcsUVEWKIVErNHuUwVlH175-45waZH-IdylhewFAySSciMrfKUoB8sySlBVVeSb2d2JumyU-xoHRQ3MRfi-nL6pLqMFCxu5m00]--></g></svg>